<?xml version="1.0" standalone="no"?><!DOCTYPE svg PUBLIC "-//W3C//DTD SVG 1.1//EN" "http://www.w3.org/Graphics/SVG/1.1/DTD/svg11.dtd"><svg t="1482116611040" class="icon" style="" viewBox="0 0 1024 1024" version="1.1" xmlns="http://www.w3.org/2000/svg" p-id="3859" xmlns:xlink="http://www.w3.org/1999/xlink" width="200" height="200"><defs><style type="text/css"></style></defs><path d="M941.255111 967.381333c-31.345778 31.388444-82.147556 31.388444-113.479111 0L665.642667 805.006222c-0.597333-0.583111-0.981333-1.28-1.550222-1.891556-58.382222 32.440889-125.511111 51.029333-197.020444 51.029333-224.782222 0-406.983111-182.471111-406.983111-407.566222S242.289778 38.997333 467.072 38.997333s406.983111 182.485333 406.983111 407.580444c0 95.288889-32.896 182.741333-87.594667 252.131556l154.794667 155.008C972.600889 885.091556 972.600889 935.978667 941.255111 967.381333zM467.086222 160.654222c-157.681778 0-285.496889 128-285.496889 285.923556 0 157.923556 127.815111 285.909333 285.496889 285.909333s285.511111-127.985778 285.511111-285.909333C752.597333 288.654222 624.768 160.654222 467.086222 160.654222z" p-id="3860" fill="#1296db"></path></svg>